<?xml version="1.0" encoding="utf-8"?>
<!-- Generator: Adobe Illustrator 18.1.0, SVG Export Plug-In . SVG Version: 6.00 Build 0)  -->
<svg version="1.1" id="Layer_1" xmlns="http://www.w3.org/2000/svg" xmlns:xlink="http://www.w3.org/1999/xlink" x="0px" y="0px"
	 viewBox="0 0 300 189.3" enable-background="new 0 0 300 189.3" xml:space="preserve">
<path fill="none" stroke="#A00000" stroke-miterlimit="10" d="M256.3,125.5H41.6c-11.2,0-20.2-9-20.2-20.2V37.5
	c0-11.2,9-20.2,20.2-20.2h214.6c11.2,0,20.2,9,20.2,20.2v67.8c0,10.6-8.2,19.4-18.7,20.1C257.3,125.5,256.8,125.5,256.3,125.5z"/>
<circle fill="#A00000" cx="72.3" cy="165" r="16.8"/>
<circle fill="#FFFFFF" cx="67" cy="159.8" r="2.8"/>
<circle fill="#FFFFFF" cx="76.8" cy="159.8" r="2.8"/>
<rect x="42" y="121.7" fill="#FFFFFF" width="25.1" height="4.8"/>
<path fill="none" stroke="#FFFFFF" stroke-width="2" stroke-miterlimit="10" d="M61.1,167.9c0,0,8.1,14,21.4,0"/>
<polyline fill="#FFFFFF" stroke="#A00000" stroke-miterlimit="10" points="41.6,125.5 59,147.7 67.1,125.5 "/>
</svg>
