<?xml version="1.0" encoding="utf-8"?>
<!-- Generator: Adobe Illustrator 17.1.0, SVG Export Plug-In . SVG Version: 6.00 Build 0)  -->
<!DOCTYPE svg PUBLIC "-//W3C//DTD SVG 1.1//EN" "http://www.w3.org/Graphics/SVG/1.1/DTD/svg11.dtd">
<svg version="1.1" id="Layer_1" xmlns="http://www.w3.org/2000/svg" xmlns:xlink="http://www.w3.org/1999/xlink" x="0px" y="0px"
	 viewBox="0 0 146.3 146.3" enable-background="new 0 0 146.3 146.3" xml:space="preserve">
<path d="M43.6,110.7H29c-4,0-7-2.3-7-6.8V45c0-4.5,3-6.8,7-6.8h7.7c4,0,6.9,2.3,6.9,6.8v13.4h-6.6V42.8h-8.4V106h8.4V79.7H33V75
	h10.7V110.7z"/>
<path d="M67.7,103.9c0,4.5-2.9,6.8-6.9,6.8h-7.7c-4,0-7-2.3-7-6.8V45c0-4.5,3-6.8,7-6.8h7.7c4,0,6.9,2.3,6.9,6.8V103.9z M61.1,106
	V42.8h-8.4V106H61.1z"/>
<path d="M93.7,42.9l-10.8-0.1v67.9h-6.6V42.8l-14.7-0.1v-4.6h32.1V42.9z"/>
<path d="M100.3,110.7h-6.6V38.2h6.6V110.7z"/>
<path d="M126.3,42.8l-8.6,0v67.9h-6.6V42.8l-11.1,0l0.3-4.6h26V42.8z"/>
</svg>
