<?xml version="1.0" encoding="utf-8"?>
<!-- Generator: Adobe Illustrator 18.1.0, SVG Export Plug-In . SVG Version: 6.00 Build 0)  -->
<svg version="1.1" id="Layer_1" xmlns="http://www.w3.org/2000/svg" xmlns:xlink="http://www.w3.org/1999/xlink" x="0px" y="0px"
	 viewBox="33.6 572.6 1234.9 1234.9" enable-background="new 33.6 572.6 1234.9 1234.9" xml:space="preserve">
<path fill="#FFFFFF" d="M386.1,1533.4H256.3c-35.6,0-62.3-20.4-62.3-60.5V949c0-40,26.7-60.5,62.3-60.5h68.5
	c35.6,0,61.3,20.4,61.3,60.5v119.2h-58.7V929.5h-74.7v562.2h74.7v-234h-35.6v-41.8H387v317.5L386.1,1533.4L386.1,1533.4z"/>
<path fill="#FFFFFF" d="M600.5,1472.9c0,40-25.8,60.5-61.3,60.5h-68.5c-35.6,0-62.3-20.4-62.3-60.5V949c0-40,26.7-60.5,62.3-60.5
	h68.5c35.6,0,61.3,20.4,61.3,60.5L600.5,1472.9L600.5,1472.9z M541.8,1491.7V929.5h-74.7v562.2H541.8z"/>
<path fill="#FFFFFF" d="M831.7,930.4l-96-0.8v604H677V929.5l-130.8-0.8v-40.9l301.7,0.8v41.7L831.7,930.4z"/>
<path fill="#FFFFFF" d="M890.4,1533.4h-58.7V888.5h58.7V1533.4z"/>
<path fill="#FFFFFF" d="M1121.8,929.5h-76.5v604h-58.7v-604h-98.8l2.6-40.9h231.2L1121.8,929.5L1121.8,929.5z"/>
<circle fill="none" stroke="#FFFFFF" stroke-width="40" stroke-miterlimit="10" cx="651.1" cy="1190" r="597.4"/>
</svg>
