<?xml version="1.0" encoding="utf-8"?>
<!-- Generator: Adobe Illustrator 18.1.0, SVG Export Plug-In . SVG Version: 6.00 Build 0)  -->
<svg version="1.1" id="Layer_1" xmlns="http://www.w3.org/2000/svg" xmlns:xlink="http://www.w3.org/1999/xlink" x="0px" y="0px"
	 viewBox="0 0 300 100" enable-background="new 0 0 300 100" xml:space="preserve">
<circle fill="#A00000" cx="149.3" cy="50.5" r="47"/>
<path fill="#FFFFFF" d="M170.6,59.3V48.8V33V23h-10h-20.8h-10v10v20.8c-0.1,0-0.2,0-0.3,0c-6.1,0-11,3.9-11,8.7
	c0,4.8,4.9,8.7,11,8.7c4.7,0,8.7-2.3,10.3-5.6v-6.2V47.1V33h20.8v20.8c-0.1,0-0.2,0-0.3,0c-6.1,0-11,3.9-11,8.7
	c0,4.8,4.9,8.7,11,8.7c4.7,0,8.7-2.3,10.3-5.6V59.3z"/>
</svg>
