<?xml version="1.0" encoding="utf-8"?>
<!-- Generator: Adobe Illustrator 18.1.0, SVG Export Plug-In . SVG Version: 6.00 Build 0)  -->
<svg version="1.1" id="Layer_1" xmlns="http://www.w3.org/2000/svg" xmlns:xlink="http://www.w3.org/1999/xlink" x="0px" y="0px"
	 viewBox="6.4 6.7 385.8 385.8" enable-background="new 6.4 6.7 385.8 385.8" xml:space="preserve">
<path fill="#FFFFFF" d="M113.5,121.7V248c0,28.7-23.2,41-47.6,41c-48.1,0-50.1-20.1-50.1-57.4h35.1c0,13.2-3,32.8,15,32.8
	c7.7,0,13.2-7.1,13.2-14.1V121.7H113.5z"/>
<path fill="#FFFFFF" d="M120.9,286.3V121.7h34.4v164.5L120.9,286.3L120.9,286.3z"/>
<path fill="#FFFFFF" d="M154.9,121.7h35.8l25.5,119.6h0.5l28.7-119.6h33.9l-43.5,164.5h-40.3L154.9,121.7z"/>
<path fill="#FFFFFF" d="M278.7,286.3V121.7h89.8V147h-55.4v40.6h51v25.3h-51V261h57.2v25.3H278.7z"/>
<polygon fill="#FFFFFF" points="120.9,85.1 120.9,121.3 155.3,103.2 "/>
<circle fill="none" stroke="#FFFFFF" stroke-width="21" stroke-miterlimit="10" cx="199.3" cy="199.6" r="182.4"/>
<g id="Layer_2">
</g>
</svg>
