<?xml version="1.0" encoding="utf-8"?>
<!-- Generator: Adobe Illustrator 18.1.0, SVG Export Plug-In . SVG Version: 6.00 Build 0)  -->
<svg version="1.1" xmlns="http://www.w3.org/2000/svg" xmlns:xlink="http://www.w3.org/1999/xlink" x="0px" y="0px"
	 viewBox="0 0 400 400" enable-background="new 0 0 400 400" xml:space="preserve">
<g id="Layer_1">
	<path fill="#FFFFFF" d="M125.6,136.6v108.1c0,24.6-19.9,35.1-40.8,35.1c-41.2,0-42.9-17.2-42.9-49.2h30.1
		c0,11.3-2.5,28.1,12.9,28.1c6.6,0,11.3-6.1,11.3-12.1V136.6H125.6z"/>
	<path fill="#FFFFFF" d="M131.9,277.5V136.6h29.5v140.9H131.9z"/>
	<path fill="#FFFFFF" d="M161,136.6h30.6l21.9,102.5h0.4l24.6-102.5h29.1l-37.3,140.9h-34.5L161,136.6z"/>
	<path fill="#FFFFFF" d="M267,277.5V136.6h76.9v21.7h-47.4V193h43.7v21.7h-43.7v41.2h49v21.7H267z"/>
	<polygon fill="#FFFFFF" points="131.9,105.2 131.9,136.3 161.4,120.7 	"/>
	<circle fill="none" stroke="#000000" stroke-width="21" stroke-miterlimit="10" cx="199.3" cy="199.6" r="182.4"/>
</g>
<g id="Layer_2">
</g>
</svg>
