<?xml version="1.0" encoding="utf-8"?>
<!-- Generator: Adobe Illustrator 18.1.0, SVG Export Plug-In . SVG Version: 6.00 Build 0)  -->
<svg version="1.1" id="Layer_1" xmlns="http://www.w3.org/2000/svg" xmlns:xlink="http://www.w3.org/1999/xlink" x="0px" y="0px"
	 viewBox="0 0 200 200" enable-background="new 0 0 200 200" xml:space="preserve">
<g>
	<g>
		<path fill="#BE1E2D" d="M140.5,75c-10-10.3-20.7-15.5-31.8-15.5c-0.2,0-0.3,0-0.5,0c-18.7,0.3-32.7,15.2-32.8,15.4L68,68.1
			c0.7-0.7,17-18.3,40-18.6c14.1-0.2,27.5,6,39.7,18.5L140.5,75z"/>
	</g>
	<g>
		<path fill="#BE1E2D" d="M140.5,92.7c-10.2-10.5-21.1-15.7-32.3-15.5c-18.7,0.3-32.6,15.2-32.8,15.4L68,85.8
			c0.7-0.7,17-18.3,40-18.6c14.1-0.2,27.5,6,39.7,18.5L140.5,92.7z"/>
	</g>
	<g>
		<path fill="#BE1E2D" d="M140.5,111.5c-10-10.3-20.7-15.5-31.8-15.5c-0.2,0-0.3,0-0.5,0c-18.7,0.3-32.7,15.2-32.8,15.4l-7.4-6.8
			c0.7-0.7,17-18.3,40-18.6c14.1-0.2,27.5,6,39.7,18.5L140.5,111.5z"/>
	</g>
</g>
</svg>
