<?xml version="1.0" encoding="utf-8"?>
<!-- Generator: Adobe Illustrator 18.1.0, SVG Export Plug-In . SVG Version: 6.00 Build 0)  -->
<svg version="1.1" id="Layer_1" xmlns="http://www.w3.org/2000/svg" xmlns:xlink="http://www.w3.org/1999/xlink" x="0px" y="0px"
	 viewBox="131.4 22.8 44.6 35.6" enable-background="new 131.4 22.8 44.6 35.6" xml:space="preserve">
<g>
	<g>
		<path fill="#A00000" d="M168.7,46.2c0-0.6-1.3-15.2-15.2-15.2c-13.8,0-14.9,14.6-15,15.2l-3.5-0.2c0.4-6.4,4.7-18.5,18.5-18.5
			c17.2,0,18.7,18.3,18.7,18.5L168.7,46.2z"/>
	</g>
	<g>
		<path fill="#A00000" d="M164.2,49.5c0-0.4-0.9-10.6-10.5-10.6c-9.6,0-10.4,10.1-10.4,10.6l-3.5-0.2c0.3-4.8,3.6-13.9,13.9-13.9
			c10.3,0,13.7,9.1,14.1,13.9L164.2,49.5z"/>
	</g>
	<g>
		<path fill="#A00000" d="M161.3,53.6c-0.6-7.1-6.6-7.3-7.3-7.3c-0.7,0-6.7,0.2-7.2,7.3l-3.5-0.2c0.2-3.7,2.7-10.7,10.7-10.7
			c7.9,0,10.5,7,10.8,10.6L161.3,53.6z"/>
	</g>
</g>
</svg>
