<?xml version="1.0" encoding="utf-8"?>
<!-- Generator: Adobe Illustrator 18.1.0, SVG Export Plug-In . SVG Version: 6.00 Build 0)  -->
<svg version="1.1" id="Layer_1" xmlns="http://www.w3.org/2000/svg" xmlns:xlink="http://www.w3.org/1999/xlink" x="0px" y="0px"
	 viewBox="131.4 22.8 44.6 35.6" enable-background="new 131.4 22.8 44.6 35.6" xml:space="preserve">
<g>
	<g>
		<path fill="#BE1E2D" d="M170.2,38.5c-5-5.2-10.4-7.8-15.9-7.8c-0.1,0-0.1,0-0.2,0c-9.3,0.1-16.3,7.6-16.4,7.7L134,35
			c0.3-0.3,8.5-9.1,20-9.3c7-0.1,13.8,3,19.8,9.2L170.2,38.5z"/>
	</g>
	<g>
		<path fill="#BE1E2D" d="M170.2,47.3c-5.1-5.2-10.6-7.8-16.2-7.8c-9.3,0.2-16.3,7.6-16.4,7.7l-3.7-3.4c0.3-0.3,8.5-9.2,20-9.3
			c7-0.1,13.8,3,19.8,9.2L170.2,47.3z"/>
	</g>
	<g>
		<path fill="#BE1E2D" d="M170.2,56.8c-5-5.2-10.4-7.8-15.9-7.8c-0.1,0-0.1,0-0.2,0c-9.3,0.2-16.3,7.6-16.4,7.7l-3.7-3.4
			c0.4-0.3,8.5-9.1,20-9.3c7.1-0.1,13.8,3,19.9,9.2L170.2,56.8z"/>
	</g>
</g>
</svg>
